<svg width="24" height="24" viewBox="0 0 24 24" fill="none" xmlns="http://www.w3.org/2000/svg">
<path d="M21.9501 7.88007C21.9033 6.81739 21.7314 6.08681 21.4852 5.45375C21.2312 4.78177 20.8404 4.18015 20.3284 3.68002C19.8282 3.17211 19.2225 2.77744 18.5582 2.52745C17.9213 2.28128 17.1944 2.10943 16.1315 2.06257C15.0607 2.01175 14.7208 2 12.0049 2C9.28897 2 8.94902 2.01175 7.88217 2.05861C6.81929 2.10546 6.08857 2.27746 5.45554 2.52348C4.78328 2.77744 4.18154 3.16814 3.68132 3.68002C3.17331 4.18015 2.77871 4.78574 2.52853 5.44993C2.28231 6.08681 2.11042 6.81342 2.06356 7.8761C2.01273 8.94672 2.00098 9.2866 2.00098 12.002C2.00098 14.7174 2.01273 15.0572 2.05959 16.1239C2.10646 17.1866 2.27849 17.9172 2.52471 18.5502C2.77871 19.2222 3.17331 19.8238 3.68132 20.3239C4.18154 20.8319 4.78725 21.2265 5.45157 21.4765C6.08857 21.7227 6.81532 21.8945 7.87836 21.9414C8.94505 21.9884 9.28515 22 12.0011 22C14.717 22 15.0569 21.9884 16.1238 21.9414C17.1866 21.8945 17.9174 21.7227 18.5504 21.4765C19.8948 20.9569 20.9576 19.8942 21.4774 18.5502C21.7235 17.9133 21.8955 17.1866 21.9424 16.1239C21.9892 15.0572 22.001 14.7174 22.001 12.002C22.001 9.2866 21.997 8.94672 21.9501 7.88007ZM20.1488 16.0458C20.1057 17.0225 19.9416 17.55 19.8048 17.9016C19.4687 18.7729 18.7771 19.4644 17.9056 19.8005C17.5539 19.9372 17.0225 20.1013 16.0494 20.1442C14.9943 20.1912 14.6779 20.2028 12.0088 20.2028C9.3398 20.2028 9.01939 20.1912 7.96811 20.1442C6.99117 20.1013 6.46362 19.9372 6.11192 19.8005C5.67825 19.6402 5.2835 19.3863 4.9631 19.0542C4.63094 18.7298 4.37693 18.3391 4.21665 17.9056C4.07988 17.5539 3.91578 17.0225 3.87289 16.0497C3.82587 14.9948 3.81427 14.6783 3.81427 12.0098C3.81427 9.34124 3.82587 9.02089 3.87289 7.96996C3.91578 6.99321 4.07988 6.46576 4.21665 6.11413C4.37693 5.68039 4.63094 5.28587 4.96707 4.96537C5.29129 4.63327 5.68207 4.37932 6.11589 4.21922C6.46759 4.08247 6.99911 3.91841 7.97208 3.87537C9.02718 3.82852 9.34377 3.81677 12.0127 3.81677C14.6857 3.81677 15.0021 3.82852 16.0534 3.87537C17.0303 3.91841 17.5579 4.08247 17.9096 4.21922C18.3432 4.37932 18.738 4.63327 19.0584 4.96537C19.3906 5.28968 19.6446 5.68039 19.8048 6.11413C19.9416 6.46576 20.1057 6.99702 20.1488 7.96996C20.1956 9.02486 20.2074 9.34124 20.2074 12.0098C20.2074 14.6783 20.1956 14.9909 20.1488 16.0458Z" fill="white"/>
<path d="M11.999 7C9.23866 7 6.99902 9.23948 6.99902 12C6.99902 14.7605 9.23866 17 11.999 17C14.7595 17 16.999 14.7605 16.999 12C16.999 9.23948 14.7595 7 11.999 7ZM11.999 15.2434C10.2082 15.2434 8.75565 13.7909 8.75565 12C8.75565 10.2091 10.2082 8.75662 11.999 8.75662C13.79 8.75662 15.2424 10.2091 15.2424 12C15.2424 13.7909 13.79 15.2434 11.999 15.2434Z" fill="white"/>
<path d="M18.999 6.5C18.999 7.32835 18.3274 8 17.4989 8C16.6706 8 15.999 7.32835 15.999 6.5C15.999 5.67146 16.6706 5 17.4989 5C18.3274 5 18.999 5.67146 18.999 6.5Z" fill="white"/>
</svg>
