<svg width="24" height="24" viewBox="0 0 24 24" fill="none" xmlns="http://www.w3.org/2000/svg">
<path d="M22.6593 3.49279C22.3906 3.17498 21.9881 3 21.5258 3C21.2746 3 21.0083 3.05113 20.7348 3.15225L2.11221 10.0269C1.12394 10.3916 0.990834 10.9389 0.999394 11.2327C1.00795 11.5265 1.17295 12.0657 2.18103 12.3759C2.18707 12.3777 2.19312 12.3795 2.19916 12.3811L6.06197 13.4501L8.15099 19.227C8.43582 20.0146 9.07515 20.5038 9.81972 20.5038C10.2892 20.5038 10.7509 20.3136 11.1551 19.9539L13.5444 17.8264L17.0099 20.5249C17.0103 20.5252 17.0108 20.5254 17.0111 20.5257L17.044 20.5514C17.047 20.5536 17.0502 20.5561 17.0532 20.5583C17.4384 20.8473 17.8589 20.9998 18.2696 21H18.2698C19.0722 21 19.7112 20.4256 19.8974 19.5367L22.9487 4.96647C23.0712 4.38164 22.9685 3.85833 22.6593 3.49279V3.49279ZM7.35422 13.2471L14.8068 9.56524L10.1663 14.3336C10.0903 14.4117 10.0364 14.5073 10.0099 14.6114L9.1151 18.1164L7.35422 13.2471ZM10.2818 19.0368C10.2509 19.0642 10.2199 19.0887 10.1888 19.1113L11.019 15.8597L12.5291 17.0357L10.2818 19.0368ZM21.6853 4.71894L18.634 19.2893C18.6046 19.4288 18.5108 19.7532 18.2696 19.7532C18.1504 19.7532 18.0007 19.6904 17.8475 19.5763L13.9205 16.5186C13.92 16.5181 13.9194 16.5176 13.9187 16.5173L11.5821 14.6977L18.2928 7.80199C18.5076 7.58124 18.5271 7.24313 18.3389 7.00063C18.1506 6.75813 17.8094 6.68184 17.5302 6.81981L6.493 12.2727L2.57765 11.1894L21.1945 4.31688C21.3518 4.25877 21.4615 4.2466 21.5258 4.2466C21.5653 4.2466 21.6354 4.25114 21.6614 4.28214C21.6957 4.32256 21.7393 4.46037 21.6853 4.71894V4.71894Z" fill="white"/>
</svg>
