<svg width="12" height="21" viewBox="0 0 12 21" fill="none" xmlns="http://www.w3.org/2000/svg">
<path d="M7.41221 21H4.02645C3.46092 21 3.00089 20.5431 3.00089 19.9813V12.396H1.02557C0.460037 12.396 0 11.9389 0 11.3773V8.12702C0 7.5653 0.460037 7.10836 1.02557 7.10836H3.00089V5.48071C3.00089 3.86684 3.51109 2.49378 4.47617 1.51021C5.4456 0.522148 6.80039 0 8.39406 0L10.9762 0.00416563C11.5408 0.00512695 12 0.462067 12 1.02283V4.04068C12 4.6024 11.5401 5.05934 10.9748 5.05934L9.23623 5.05998C8.70602 5.05998 8.57101 5.16557 8.54214 5.19793C8.49456 5.2516 8.43794 5.40333 8.43794 5.8223V7.1082H10.8441C11.0252 7.1082 11.2007 7.15258 11.3516 7.23621C11.6769 7.41678 11.8792 7.7582 11.8792 8.12718L11.8779 11.3775C11.8779 11.9389 11.4179 12.3959 10.8523 12.3959H8.43794V19.9813C8.43794 20.5431 7.97774 21 7.41221 21V21ZM4.24034 19.7689H7.19832V11.8449C7.19832 11.4698 7.5056 11.1647 7.88305 11.1647H10.6384L10.6396 8.33947H7.88289C7.50544 8.33947 7.19832 8.03442 7.19832 7.65935V5.8223C7.19832 5.34132 7.24752 4.79434 7.61303 4.38322C8.05468 3.88623 8.75071 3.82887 9.23591 3.82887L10.7605 3.82823V1.23495L8.3931 1.23111C5.83192 1.23111 4.24034 2.85956 4.24034 5.48071V7.65935C4.24034 8.03426 3.93322 8.33947 3.55577 8.33947H1.23945V11.1647H3.55577C3.93322 11.1647 4.24034 11.4698 4.24034 11.8449V19.7689ZM10.9738 1.23528H10.9739H10.9738Z" fill="white"/>
</svg>
