<svg width="26" height="18" viewBox="0 0 26 18" fill="none" xmlns="http://www.w3.org/2000/svg">
<mask id="path-1-inside-1_21_158" fill="white">
<path fill-rule="evenodd" clip-rule="evenodd" d="M22.8362 0.538442C23.9131 0.828372 24.7621 1.67745 25.0521 2.75434C25.5905 4.72172 25.5698 8.82217 25.5698 8.82217C25.5698 8.82217 25.5698 12.9019 25.0521 14.8693C24.7621 15.9462 23.9131 16.7952 22.8362 17.0852C20.8688 17.6029 12.9993 17.6029 12.9993 17.6029C12.9993 17.6029 5.15043 17.6029 3.16234 17.0645C2.08546 16.7745 1.23637 15.9255 0.946444 14.8486C0.428711 12.9019 0.428711 8.80146 0.428711 8.80146C0.428711 8.80146 0.428711 4.72172 0.946444 2.75434C1.23637 1.67745 2.10616 0.807663 3.16234 0.517733C5.12972 0 12.9993 0 12.9993 0C12.9993 0 20.8688 0 22.8362 0.538442ZM16 8.625L11.5 11.25V6L16 8.625Z"/>
</mask>
<path d="M25.0521 2.75434L23.1208 3.27429L23.123 3.28229L25.0521 2.75434ZM22.8362 0.538442L22.3082 2.46752L22.3162 2.46967L22.8362 0.538442ZM25.5698 8.82217L23.5698 8.81207V8.82217H25.5698ZM25.0521 14.8693L26.9833 15.3892L26.9862 15.3783L25.0521 14.8693ZM22.8362 17.0852L23.3452 19.0194L23.3561 19.0164L22.8362 17.0852ZM3.16234 17.0645L3.68517 15.134L3.68229 15.1332L3.16234 17.0645ZM0.946444 14.8486L-0.986376 15.3626L-0.984788 15.3685L0.946444 14.8486ZM0.946444 2.75434L-0.984819 2.23438L-0.987705 2.24535L0.946444 2.75434ZM3.16234 0.517733L2.65335 -1.41642L2.64311 -1.41372L2.63291 -1.41092L3.16234 0.517733ZM11.5 11.25H9.5V14.7321L12.5077 12.9776L11.5 11.25ZM16 8.625L17.0077 10.3526L19.9693 8.625L17.0077 6.89744L16 8.625ZM11.5 6L12.5077 4.27244L9.5 2.51793V6H11.5ZM26.9833 2.23439C26.5081 0.469192 25.1213 -0.917545 23.3561 -1.39279L22.3162 2.46967C22.7048 2.57429 23.0162 2.88572 23.1208 3.27428L26.9833 2.23439ZM25.5698 8.82217C27.5698 8.83227 27.5698 8.83212 27.5698 8.83196C27.5698 8.83188 27.5698 8.8317 27.5698 8.83155C27.5698 8.83125 27.5698 8.83089 27.5698 8.83047C27.5698 8.82962 27.5698 8.82852 27.5698 8.82717C27.5698 8.82448 27.5698 8.8208 27.5698 8.81616C27.5699 8.80688 27.5699 8.79375 27.5699 8.77696C27.5699 8.74338 27.5699 8.69514 27.5696 8.63376C27.5691 8.51106 27.5678 8.33555 27.5644 8.11956C27.5577 7.68849 27.5429 7.09151 27.5105 6.42838C27.4487 5.16416 27.3149 3.44586 26.9811 2.22638L23.123 3.28229C23.3277 4.0302 23.4528 5.34582 23.5152 6.62366C23.545 7.23156 23.5587 7.78266 23.5649 8.1819C23.568 8.38106 23.5692 8.54128 23.5697 8.6505C23.5699 8.70509 23.5699 8.74686 23.5699 8.77431C23.5699 8.78803 23.5699 8.79817 23.5699 8.80452C23.5699 8.8077 23.5698 8.80994 23.5698 8.8112C23.5698 8.81183 23.5698 8.81222 23.5698 8.81237C23.5698 8.81244 23.5698 8.81245 23.5698 8.8124C23.5698 8.81238 23.5698 8.81229 23.5698 8.81228C23.5698 8.81218 23.5698 8.81207 25.5698 8.82217ZM26.9862 15.3783C27.3038 14.1714 27.4381 12.4698 27.5025 11.2101C27.5362 10.551 27.553 9.95781 27.5613 9.52951C27.5655 9.31492 27.5677 9.14062 27.5687 9.01883C27.5693 8.95791 27.5695 8.91006 27.5697 8.87679C27.5697 8.86015 27.5698 8.84716 27.5698 8.83799C27.5698 8.83341 27.5698 8.82978 27.5698 8.82714C27.5698 8.82581 27.5698 8.82474 27.5698 8.82391C27.5698 8.82349 27.5698 8.82314 27.5698 8.82285C27.5698 8.8227 27.5698 8.82253 27.5698 8.82246C27.5698 8.8223 27.5698 8.82217 25.5698 8.82217C23.5698 8.82217 23.5698 8.82206 23.5698 8.82196C23.5698 8.82195 23.5698 8.82188 23.5698 8.82185C23.5698 8.82181 23.5698 8.82183 23.5698 8.82191C23.5698 8.82207 23.5698 8.82248 23.5698 8.82312C23.5698 8.82442 23.5698 8.82667 23.5698 8.82987C23.5698 8.83626 23.5698 8.84641 23.5697 8.86014C23.5696 8.88759 23.5694 8.92931 23.5689 8.98378C23.5679 9.09279 23.566 9.25259 23.5621 9.45122C23.5543 9.84935 23.5387 10.3991 23.5077 11.0058C23.4427 12.2778 23.3181 13.5998 23.1179 14.3603L26.9862 15.3783ZM23.3561 19.0164C25.1213 18.5412 26.5081 17.1544 26.9833 15.3892L23.1208 14.3493C23.0162 14.7379 22.7048 15.0493 22.3162 15.1539L23.3561 19.0164ZM12.9993 17.6029C12.9993 19.6029 12.9994 19.6029 12.9995 19.6029C12.9996 19.6029 12.9997 19.6029 12.9999 19.6029C13.0002 19.6029 13.0006 19.6029 13.0012 19.6029C13.0023 19.6029 13.0039 19.6029 13.006 19.6029C13.0102 19.6029 13.0162 19.6029 13.024 19.6029C13.0397 19.6029 13.0626 19.6028 13.0925 19.6028C13.1521 19.6027 13.2392 19.6024 13.3505 19.6019C13.5729 19.6009 13.892 19.5988 14.2807 19.5947C15.0573 19.5865 16.1156 19.5702 17.2384 19.5373C18.3581 19.5046 19.5578 19.455 20.6123 19.3794C21.6117 19.3076 22.6489 19.2026 23.3452 19.0193L22.3272 15.151C22.0398 15.2267 21.3555 15.3157 20.326 15.3896C19.3517 15.4596 18.2151 15.5071 17.1215 15.5391C16.031 15.5709 14.999 15.5869 14.2386 15.5949C13.8587 15.5989 13.5476 15.6009 13.332 15.6019C13.2242 15.6024 13.1404 15.6027 13.0838 15.6028C13.0555 15.6029 13.034 15.6029 13.0198 15.6029C13.0127 15.6029 13.0074 15.6029 13.0039 15.6029C13.0022 15.6029 13.001 15.6029 13.0002 15.6029C12.9998 15.6029 12.9995 15.6029 12.9994 15.6029C12.9993 15.6029 12.9993 15.6029 12.9992 15.6029C12.9992 15.6029 12.9993 15.6029 12.9993 17.6029ZM2.63951 18.9949C3.34481 19.1859 4.38774 19.2955 5.38936 19.3702C6.44634 19.449 7.64651 19.5006 8.76547 19.5347C9.88767 19.5688 10.9446 19.5859 11.7199 19.5944C12.1079 19.5986 12.4264 19.6008 12.6485 19.6018C12.7595 19.6024 12.8465 19.6026 12.9061 19.6028C12.9359 19.6028 12.9588 19.6029 12.9745 19.6029C12.9823 19.6029 12.9883 19.6029 12.9925 19.6029C12.9946 19.6029 12.9962 19.6029 12.9973 19.6029C12.9979 19.6029 12.9983 19.6029 12.9986 19.6029C12.9988 19.6029 12.999 19.6029 12.999 19.6029C12.9992 19.6029 12.9993 19.6029 12.9993 17.6029C12.9993 15.6029 12.9993 15.6029 12.9993 15.6029C12.9993 15.6029 12.9992 15.6029 12.9992 15.6029C12.999 15.6029 12.9988 15.6029 12.9984 15.6029C12.9976 15.6029 12.9964 15.6029 12.9947 15.6029C12.9912 15.6029 12.986 15.6029 12.9789 15.6029C12.9647 15.6029 12.9434 15.6029 12.9152 15.6028C12.8588 15.6027 12.7752 15.6024 12.6678 15.6019C12.4528 15.6009 12.1426 15.5988 11.7638 15.5946C11.0053 15.5863 9.97572 15.5697 8.8872 15.5365C7.79544 15.5033 6.66064 15.4539 5.68681 15.3813C4.65763 15.3046 3.97392 15.2122 3.68517 15.134L2.63951 18.9949ZM-0.984788 15.3685C-0.509543 17.1337 0.877193 18.5205 2.64239 18.9957L3.68229 15.1332C3.29372 15.0286 2.98229 14.7172 2.87768 14.3286L-0.984788 15.3685ZM0.428711 8.80146C-1.57129 8.80146 -1.57129 8.8016 -1.57129 8.80175C-1.57129 8.80182 -1.57129 8.80199 -1.57129 8.80214C-1.57129 8.80243 -1.57129 8.80278 -1.57129 8.8032C-1.57129 8.80403 -1.57129 8.80511 -1.57129 8.80643C-1.57128 8.80908 -1.57128 8.81272 -1.57127 8.81732C-1.57125 8.82652 -1.57121 8.83956 -1.57115 8.85627C-1.57101 8.88967 -1.57074 8.93773 -1.5702 8.99889C-1.56914 9.12118 -1.56702 9.29619 -1.56282 9.51156C-1.55444 9.94142 -1.53767 10.5365 -1.50397 11.1969C-1.43967 12.4572 -1.30553 14.1626 -0.986367 15.3626L2.87925 14.3345C2.68069 13.5879 2.55596 12.2697 2.49083 10.9931C2.45981 10.385 2.44422 9.83338 2.43642 9.43357C2.43253 9.23411 2.4306 9.07356 2.42965 8.964C2.42917 8.90925 2.42893 8.86731 2.42882 8.83969C2.42876 8.82589 2.42874 8.81567 2.42872 8.80924C2.42872 8.80602 2.42871 8.80374 2.42871 8.80244C2.42871 8.80179 2.42871 8.80138 2.42871 8.80121C2.42871 8.80113 2.42871 8.80111 2.42871 8.80115C2.42871 8.80117 2.42871 8.80125 2.42871 8.80126C2.42871 8.80135 2.42871 8.80146 0.428711 8.80146ZM-0.987705 2.24535C-1.3053 3.45221 -1.43956 5.15379 -1.50396 6.41355C-1.53766 7.07263 -1.55443 7.66581 -1.56282 8.09411C-1.56702 8.3087 -1.56913 8.483 -1.5702 8.60479C-1.57073 8.66571 -1.57101 8.71356 -1.57115 8.74683C-1.57121 8.76347 -1.57125 8.77647 -1.57127 8.78563C-1.57128 8.79021 -1.57128 8.79384 -1.57129 8.79648C-1.57129 8.79781 -1.57129 8.79889 -1.57129 8.79972C-1.57129 8.80013 -1.57129 8.80048 -1.57129 8.80077C-1.57129 8.80092 -1.57129 8.80109 -1.57129 8.80116C-1.57129 8.80132 -1.57129 8.80146 0.428711 8.80146C2.42871 8.80146 2.42871 8.80157 2.42871 8.80166C2.42871 8.80167 2.42871 8.80175 2.42871 8.80177C2.42871 8.80181 2.42871 8.80179 2.42871 8.80171C2.42871 8.80155 2.42871 8.80114 2.42871 8.8005C2.42871 8.79921 2.42872 8.79695 2.42872 8.79376C2.42874 8.78736 2.42876 8.77721 2.42882 8.76348C2.42893 8.73603 2.42917 8.69432 2.42965 8.63984C2.4306 8.53083 2.43253 8.37103 2.43642 8.1724C2.44421 7.77428 2.4598 7.22456 2.49082 6.61778C2.55585 5.34583 2.68045 4.02385 2.88059 3.26332L-0.987705 2.24535ZM2.63291 -1.41092C0.890097 -0.932501 -0.511164 0.475216 -0.984788 2.23439L2.87768 3.27428C2.98391 2.87969 3.32223 2.54783 3.69177 2.44639L2.63291 -1.41092ZM12.9993 0C12.9993 -2 12.9992 -2 12.999 -2C12.999 -2 12.9988 -2 12.9986 -2C12.9983 -2 12.9979 -2 12.9973 -2C12.9962 -2 12.9946 -2 12.9925 -2C12.9884 -2 12.9824 -1.99999 12.9745 -1.99998C12.9588 -1.99997 12.9359 -1.99993 12.9061 -1.99987C12.8464 -1.99974 12.7593 -1.99948 12.648 -1.99897C12.4256 -1.99794 12.1065 -1.99589 11.7179 -1.9918C10.9413 -1.98362 9.88296 -1.96726 8.76012 -1.93443C7.64042 -1.90169 6.44075 -1.85214 5.38618 -1.77645C4.38678 -1.70472 3.34962 -1.59964 2.65335 -1.41642L3.67133 2.45188C3.95875 2.37624 4.64305 2.28717 5.67252 2.21329C6.64681 2.14336 7.78341 2.09584 8.87702 2.06386C9.96749 2.03198 10.9995 2.01598 11.76 2.00798C12.1398 2.00398 12.4509 2.00199 12.6665 2.00099C12.7743 2.00049 12.8582 2.00024 12.9148 2.00012C12.943 2.00006 12.9645 2.00003 12.9787 2.00001C12.9859 2.00001 12.9912 2 12.9946 2C12.9963 2 12.9976 2 12.9983 2C12.9987 2 12.999 2 12.9992 2C12.9992 2 12.9993 2 12.9993 2C12.9993 2 12.9993 2 12.9993 0ZM23.3641 -1.39062C22.6608 -1.5831 21.6172 -1.69272 20.618 -1.7673C19.5619 -1.84613 18.361 -1.89771 17.2407 -1.93177C16.1173 -1.96594 15.0584 -1.98296 14.2815 -1.99147C13.8926 -1.99572 13.5734 -1.99786 13.3509 -1.99893C13.2395 -1.99946 13.1524 -1.99973 13.0926 -1.99986C13.0628 -1.99993 13.0398 -1.99997 13.0241 -1.99998C13.0162 -1.99999 13.0102 -2 13.0061 -2C13.004 -2 13.0024 -2 13.0012 -2C13.0007 -2 13.0002 -2 12.9999 -2C12.9997 -2 12.9996 -2 12.9995 -2C12.9994 -2 12.9993 -2 12.9993 0C12.9993 2 12.9992 2 12.9992 2C12.9993 2 12.9993 2 12.9994 2C12.9995 2 12.9998 2 13.0002 2C13.0009 2 13.0022 2 13.0039 2C13.0073 2 13.0126 2.00001 13.0197 2.00002C13.0339 2.00003 13.0553 2.00006 13.0836 2.00013C13.1401 2.00025 13.2239 2.00051 13.3316 2.00103C13.5471 2.00206 13.8581 2.00414 14.2377 2.00829C14.9978 2.01661 16.0293 2.03324 17.1192 2.06638C18.2123 2.09962 19.3476 2.149 20.3203 2.22161C21.35 2.29847 22.0278 2.39076 22.3082 2.4675L23.3641 -1.39062ZM12.5077 12.9776L17.0077 10.3526L14.9923 6.89744L10.4923 9.52244L12.5077 12.9776ZM9.5 6V11.25H13.5V6H9.5ZM17.0077 6.89744L12.5077 4.27244L10.4923 7.72756L14.9923 10.3526L17.0077 6.89744Z" fill="white" mask="url(#path-1-inside-1_21_158)"/>
</svg>
