<svg width="22" height="22" viewBox="0 0 22 22" fill="none" xmlns="http://www.w3.org/2000/svg">
<path d="M8.60598 13.3651C9.50598 14.2281 10.561 14.9301 11.727 15.4281L12.246 15.6491L13.841 14.0291C14.237 13.6271 14.81 13.4531 15.363 13.5691L19.227 14.3781C19.881 14.5171 20.348 15.0941 20.348 15.7621V18.5441C20.348 19.5391 19.542 20.3451 18.547 20.3451H17.692C13.758 20.3451 9.87598 19.0421 6.93998 16.4241C6.69798 16.2091 6.46298 15.9861 6.23398 15.7581L6.27098 15.7951C6.04198 15.5661 5.81998 15.3311 5.60498 15.0891C2.98598 12.1541 1.68298 8.27213 1.68298 4.33813V3.48313C1.68298 2.48813 2.48898 1.68213 3.48398 1.68213H6.26598C6.93398 1.68213 7.51098 2.14913 7.64998 2.80313L8.45998 6.66713C8.57498 7.21913 8.40198 7.79313 7.99998 8.18913L6.37998 9.78413L6.60098 10.3031C7.09898 11.4681 7.74198 12.4651 8.60598 13.3651Z" stroke="white" stroke-width="1.5" stroke-miterlimit="10" stroke-linecap="round" stroke-linejoin="round"/>
</svg>
